<svg width="48" height="48" viewBox="0 0 48 48" fill="none" xmlns="http://www.w3.org/2000/svg">
<g clip-path="url(#clip0_992_3434)">
<path d="M47.2496 24.75C47.0507 24.75 46.8599 24.6709 46.7192 24.5303C46.5786 24.3896 46.4996 24.1989 46.4996 24C46.5155 18.9946 44.8487 14.1292 41.7671 10.185C41.6985 10.1083 41.6465 10.0184 41.6142 9.92079C41.5819 9.82319 41.57 9.71998 41.5792 9.61758C41.5885 9.51518 41.6187 9.41577 41.668 9.32554C41.7172 9.2353 41.7846 9.15617 41.8657 9.09304C41.9469 9.02992 42.0401 8.98416 42.1397 8.9586C42.2393 8.93304 42.3431 8.92823 42.4446 8.94447C42.5462 8.96071 42.6433 8.99765 42.7299 9.053C42.8166 9.10835 42.8909 9.18093 42.9483 9.26622C46.2384 13.4711 48.0177 18.6609 47.9996 24C47.9996 24.1989 47.9206 24.3896 47.7799 24.5303C47.6393 24.6709 47.4485 24.75 47.2496 24.75Z" fill="#98A2B3"/>
<path d="M36.8923 5.40015C36.7446 5.39976 36.6001 5.35679 36.4761 5.2764C32.7907 2.8247 28.464 1.51452 24.0375 1.50985C19.6111 1.50518 15.2817 2.80623 11.5911 5.25015C11.5088 5.30457 11.4167 5.34225 11.3199 5.36105C11.2231 5.37986 11.1235 5.37941 11.0269 5.35973C10.9303 5.34006 10.8385 5.30154 10.7567 5.24639C10.675 5.19123 10.6049 5.12051 10.5505 5.03827C10.496 4.95603 10.4584 4.86388 10.4396 4.76708C10.4208 4.67027 10.4212 4.57071 10.4409 4.47408C10.4606 4.37745 10.4991 4.28564 10.5542 4.20389C10.6094 4.12215 10.6801 4.05207 10.7623 3.99765C14.7012 1.3934 19.3208 0.00894711 24.0428 0.0176186C28.7648 0.0262901 33.3793 1.4277 37.3086 4.0464C37.4418 4.13595 37.5429 4.2659 37.5968 4.41714C37.6506 4.56838 37.6546 4.73293 37.608 4.88657C37.5614 5.04022 37.4667 5.17485 37.3379 5.27068C37.2091 5.3665 37.0529 5.41846 36.8923 5.4189V5.40015Z" fill="#98A2B3"/>
<path d="M0.750112 24.7501C0.5512 24.7501 0.360434 24.671 0.219782 24.5304C0.0791298 24.3897 0.000112119 24.199 0.000112119 24.0001C-0.00974407 20.787 0.630328 17.6052 1.88183 14.6459C3.13334 11.6867 4.97043 9.01106 7.28261 6.78006C7.42782 6.64131 7.62219 6.56594 7.82297 6.57051C8.02375 6.57508 8.2145 6.65922 8.35324 6.80443C8.49198 6.94964 8.56735 7.14401 8.56278 7.34479C8.55821 7.54557 8.47407 7.73631 8.32886 7.87506C6.16306 9.9642 4.44176 12.4695 3.26829 15.2404C2.09482 18.0114 1.49339 20.9909 1.50011 24.0001C1.50011 24.199 1.42109 24.3897 1.28044 24.5304C1.13979 24.671 0.949024 24.7501 0.750112 24.7501Z" fill="#98A2B3"/>
<path d="M37.4584 43.7175C37.3161 43.717 37.1768 43.676 37.0569 43.5994C36.937 43.5227 36.8414 43.4135 36.7812 43.2845C36.7211 43.1555 36.6989 43.0121 36.7172 42.871C36.7355 42.7298 36.7936 42.5968 36.8847 42.4875C38.6847 40.3237 40.0009 37.1662 40.7959 33.1125C40.8105 33.0118 40.8453 32.9152 40.8983 32.8285C40.9514 32.7417 41.0215 32.6667 41.1045 32.6079C41.1874 32.5491 41.2815 32.5077 41.3809 32.4864C41.4803 32.4651 41.583 32.4642 41.6828 32.4838C41.7825 32.5034 41.8773 32.5431 41.9612 32.6004C42.0452 32.6578 42.1166 32.7316 42.1712 32.8174C42.2257 32.9032 42.2622 32.9992 42.2785 33.0996C42.2948 33.1999 42.2905 33.3026 42.2659 33.4012C41.4259 37.7175 40.0159 41.1 38.0359 43.4587C37.9643 43.5413 37.8755 43.6073 37.7758 43.652C37.676 43.6967 37.5677 43.719 37.4584 43.7175Z" fill="#98A2B3"/>
<path d="M42.281 27.7087H42.2435C42.0451 27.698 41.8591 27.6091 41.7262 27.4615C41.5934 27.3138 41.5245 27.1195 41.5347 26.9212C41.606 25.5637 41.606 24.5362 41.606 24.0412C41.6047 20.6674 40.6384 17.3643 38.8211 14.5218C37.0039 11.6792 34.4114 9.41585 31.3497 7.99865C31.1784 7.91001 31.0478 7.75876 30.9851 7.57632C30.9224 7.39389 30.9324 7.19431 31.013 7.01906C31.0936 6.84381 31.2387 6.70636 31.418 6.63528C31.5973 6.56421 31.7972 6.56497 31.976 6.6374C35.2959 8.16786 38.1092 10.6153 40.0844 13.6915C42.0597 16.7676 43.1145 20.3442 43.1247 23.9999C43.1247 24.5362 43.1247 25.5899 43.0497 26.9999C43.039 27.1949 42.9528 27.378 42.8092 27.5103C42.6657 27.6427 42.4761 27.7138 42.281 27.7087Z" fill="#98A2B3"/>
<path d="M2.95475 32.7073C2.79313 32.7081 2.63559 32.6566 2.50559 32.5606C2.37559 32.4646 2.28008 32.3292 2.23329 32.1745C2.1865 32.0198 2.19093 31.8541 2.24593 31.7021C2.30093 31.5501 2.40354 31.42 2.5385 31.3311C4.62725 29.9586 4.8935 26.6961 4.8935 24.0073C4.8935 18.9351 6.90845 14.0705 10.4951 10.4839C14.0817 6.89727 18.9462 4.88232 24.0185 4.88232C24.2174 4.88232 24.4082 4.96134 24.5488 5.10199C24.6895 5.24265 24.7685 5.43341 24.7685 5.63232C24.7685 5.83124 24.6895 6.022 24.5488 6.16265C24.4082 6.30331 24.2174 6.38232 24.0185 6.38232C19.3454 6.38232 14.8635 8.23821 11.5584 11.5419C8.25328 14.8456 6.39549 19.3267 6.3935 23.9998C6.3935 27.0636 6.0485 30.8098 3.3635 32.5761C3.24366 32.6602 3.10114 32.7059 2.95475 32.7073Z" fill="#98A2B3"/>
<path d="M30.1991 46.9052C30.0521 46.9046 29.9085 46.8609 29.7862 46.7794C29.6639 46.6978 29.5682 46.5822 29.5111 46.4467C29.4539 46.3113 29.4379 46.162 29.4649 46.0176C29.4918 45.8731 29.5607 45.7397 29.6629 45.634C35.7941 39.3265 36.7091 29.3777 36.7091 24.0002C36.7084 21.7636 36.1175 19.5667 34.9963 17.6314C33.875 15.6961 32.2629 14.0908 30.3229 12.9778C28.3828 11.8647 26.1834 11.2832 23.9468 11.292C21.7101 11.3008 19.5154 11.8995 17.5841 13.0277C17.4139 13.1094 17.2192 13.1238 17.0388 13.0682C16.8584 13.0126 16.7056 12.891 16.6109 12.7276C16.5162 12.5643 16.4866 12.3713 16.528 12.1871C16.5694 12.0029 16.6787 11.8411 16.8341 11.734C18.9928 10.4731 21.446 9.80411 23.946 9.79454C26.4459 9.78497 28.9041 10.4352 31.0725 11.6795C33.2408 12.9238 35.0424 14.7181 36.2954 16.8814C37.5485 19.0447 38.2086 21.5003 38.2091 24.0002C38.2091 29.5952 37.2416 39.9827 30.7391 46.6727C30.6694 46.7459 30.5856 46.8041 30.4928 46.8441C30.4001 46.884 30.3001 46.9048 30.1991 46.9052Z" fill="#98A2B3"/>
<path d="M10.541 24.7501C10.3421 24.7501 10.1513 24.6711 10.0107 24.5304C9.87003 24.3898 9.79102 24.199 9.79102 24.0001C9.79308 20.7022 10.941 17.5075 13.0385 14.9626C13.0986 14.8797 13.1751 14.8099 13.2632 14.7577C13.3513 14.7055 13.4492 14.6718 13.5508 14.6589C13.6524 14.6459 13.7556 14.6539 13.8539 14.6823C13.9523 14.7108 14.0439 14.759 14.1229 14.8242C14.2019 14.8894 14.2667 14.97 14.3134 15.0612C14.3601 15.1524 14.3875 15.2522 14.3942 15.3544C14.4008 15.4566 14.3864 15.5591 14.3519 15.6555C14.3174 15.7519 14.2635 15.8403 14.1935 15.9151C12.3199 18.1932 11.2942 21.0505 11.291 24.0001C11.291 24.199 11.212 24.3898 11.0713 24.5304C10.9307 24.6711 10.7399 24.7501 10.541 24.7501Z" fill="#98A2B3"/>
<path d="M4.70609 37.7363C4.52351 37.7387 4.34634 37.6744 4.20779 37.5555C4.06924 37.4365 3.97884 37.2712 3.95353 37.0903C3.92822 36.9095 3.96975 36.7256 4.07033 36.5733C4.17091 36.4209 4.32362 36.3104 4.49984 36.2626C7.67609 35.3851 8.93234 30.8476 9.39734 28.2188C9.43464 28.0229 9.54824 27.8498 9.71315 27.7376C9.79481 27.6821 9.88661 27.6432 9.9833 27.6231C10.08 27.603 10.1797 27.6022 10.2767 27.6207C10.3737 27.6392 10.4662 27.6765 10.5487 27.7307C10.6313 27.7849 10.7024 27.8548 10.7579 27.9365C10.8134 28.0182 10.8524 28.11 10.8724 28.2066C10.8925 28.3033 10.8933 28.403 10.8748 28.5001C10.3461 31.4738 8.86859 36.6338 4.90109 37.7251C4.83686 37.7373 4.7713 37.7411 4.70609 37.7363Z" fill="#98A2B3"/>
<path d="M23.2083 48.0001C23.0503 48.0004 22.8962 47.9507 22.768 47.8582C22.6399 47.7657 22.5442 47.635 22.4947 47.4849C22.4452 47.3348 22.4445 47.1729 22.4925 47.0223C22.5405 46.8717 22.6348 46.7401 22.7621 46.6463C29.2496 41.8388 31.1921 33.8438 31.6721 27.9863C31.68 27.8878 31.7072 27.7919 31.7521 27.7039C31.7971 27.6159 31.859 27.5377 31.9342 27.4736C32.0094 27.4095 32.0965 27.3609 32.1905 27.3305C32.2845 27.3001 32.3836 27.2885 32.4821 27.2963C32.5806 27.3042 32.6765 27.3314 32.7645 27.3764C32.8525 27.4214 32.9308 27.4832 32.9948 27.5584C33.0589 27.6337 33.1075 27.7208 33.1379 27.8148C33.1684 27.9088 33.18 28.0078 33.1721 28.1063C32.6658 34.2751 30.6071 42.7313 23.6583 47.8538C23.528 47.9499 23.3702 48.0012 23.2083 48.0001Z" fill="#98A2B3"/>
<path d="M7.80784 41.4485C7.60893 41.4664 7.41105 41.4046 7.25774 41.2766C7.10443 41.1486 7.00824 40.9649 6.99034 40.766C6.97244 40.5671 7.03428 40.3692 7.16228 40.2159C7.29027 40.0626 7.47393 39.9664 7.67284 39.9485C14.3478 38.7223 14.6853 26.4485 14.6853 23.996C14.6892 21.8826 15.4114 19.8333 16.7333 18.1843C18.0552 16.5353 19.8984 15.3847 21.9604 14.9212C24.0223 14.4577 26.1806 14.7089 28.0811 15.6335C29.9815 16.5581 31.5112 18.1013 32.4191 20.0098C32.4643 20.099 32.4912 20.1964 32.4982 20.2962C32.5052 20.3959 32.4922 20.4961 32.4599 20.5908C32.4277 20.6855 32.3768 20.7727 32.3103 20.8474C32.2438 20.9222 32.163 20.9828 32.0727 21.0258C31.9824 21.0689 31.8844 21.0934 31.7844 21.098C31.6845 21.1026 31.5847 21.0871 31.4908 21.0525C31.397 21.018 31.311 20.965 31.2379 20.8966C31.1648 20.8283 31.1061 20.7461 31.0653 20.6548C30.3038 19.053 29.0203 17.7578 27.4256 16.9817C25.8308 16.2056 24.0196 15.9947 22.2892 16.3837C20.5589 16.7727 19.0121 17.7384 17.903 19.1223C16.7938 20.5063 16.1881 22.2262 16.1853 23.9998C16.1853 27.7498 15.5891 40.0235 7.93534 41.426C7.89342 41.4365 7.85081 41.444 7.80784 41.4485Z" fill="#98A2B3"/>
<path d="M16.597 46.8077C16.424 46.8083 16.256 46.7489 16.1217 46.6398C15.9874 46.5306 15.895 46.3784 15.8601 46.2089C15.8252 46.0393 15.8501 45.863 15.9304 45.7097C16.0107 45.5564 16.1416 45.4356 16.3008 45.3677C18.9891 44.2396 21.1997 42.2093 22.552 39.6265C22.6475 39.4519 22.8084 39.3225 22.9994 39.2666C23.1903 39.2106 23.3956 39.2329 23.5702 39.3284C23.7447 39.4238 23.8742 39.5847 23.9301 39.7757C23.986 39.9666 23.9638 40.1719 23.8683 40.3465C22.3538 43.2297 19.8803 45.4938 16.8745 46.7477C16.7867 46.7852 16.6925 46.8056 16.597 46.8077Z" fill="#98A2B3"/>
<path d="M25.0614 36.6899C24.9539 36.6913 24.8475 36.6682 24.7502 36.6224C24.6598 36.5819 24.5783 36.5238 24.5104 36.4517C24.4425 36.3795 24.3896 36.2945 24.3547 36.2018C24.3199 36.109 24.3037 36.0103 24.3072 35.9113C24.3107 35.8123 24.3338 35.7149 24.3752 35.6249C26.0014 31.9621 26.8664 28.0071 26.9177 23.9999C26.9177 23.2251 26.6099 22.4821 26.0621 21.9342C25.5142 21.3864 24.7712 21.0786 23.9964 21.0786C23.2217 21.0786 22.4787 21.3864 21.9308 21.9342C21.383 22.4821 21.0752 23.2251 21.0752 23.9999C21.0752 24.1988 20.9962 24.3895 20.8555 24.5302C20.7149 24.6708 20.5241 24.7499 20.3252 24.7499C20.1263 24.7499 19.9355 24.6708 19.7949 24.5302C19.6542 24.3895 19.5752 24.1988 19.5752 23.9999C19.5752 22.8273 20.041 21.7027 20.8701 20.8736C21.6993 20.0444 22.8239 19.5786 23.9964 19.5786C25.169 19.5786 26.2936 20.0444 27.1227 20.8736C27.9519 21.7027 28.4177 22.8273 28.4177 23.9999C28.3622 28.2202 27.4514 32.3854 25.7402 36.2436C25.6819 36.3753 25.5868 36.4874 25.4665 36.5666C25.3461 36.6457 25.2055 36.6885 25.0614 36.6899Z" fill="#98A2B3"/>
<path d="M11.1753 44.1563C10.9764 44.1608 10.7838 44.0861 10.64 43.9486C10.4962 43.8111 10.4129 43.6221 10.4084 43.4232C10.4039 43.2243 10.4786 43.0318 10.6161 42.8879C10.7536 42.7441 10.9426 42.6608 11.1415 42.6563C16.1553 42.4088 18.2028 35.9813 19.0165 30.6301C19.031 30.5303 19.0655 30.4344 19.1178 30.3483C19.1702 30.2621 19.2394 30.1874 19.3213 30.1285C19.4033 30.0697 19.4962 30.028 19.5946 30.006C19.693 29.9839 19.7948 29.9819 19.894 30.0001C20.0897 30.0315 20.265 30.139 20.3816 30.2992C20.4983 30.4594 20.5468 30.6592 20.5165 30.8551C19.2003 39.3188 15.9828 43.9163 11.2128 44.1488L11.1753 44.1563Z" fill="#98A2B3"/>
<path d="M45.6754 33.1837C45.5827 33.1845 45.4909 33.1667 45.4054 33.1312C45.3135 33.0956 45.2295 33.0422 45.1583 32.974C45.0871 32.9059 45.03 32.8244 44.9903 32.7342C44.9506 32.644 44.9291 32.5469 44.9269 32.4484C44.9248 32.3498 44.9421 32.2518 44.9779 32.16C45.9888 29.5585 46.5052 26.7911 46.5004 24C46.5004 23.8011 46.5794 23.6103 46.72 23.4697C46.8607 23.329 47.0514 23.25 47.2504 23.25C47.4493 23.25 47.64 23.329 47.7807 23.4697C47.9213 23.6103 48.0004 23.8011 48.0004 24C48.0045 26.9745 47.4538 29.9237 46.3766 32.6963C46.3232 32.8392 46.2274 32.9625 46.1021 33.0496C45.9768 33.1367 45.828 33.1835 45.6754 33.1837Z" fill="#98A2B3"/>
</g>
<defs>
<clipPath id="clip0_992_3434">
<rect width="48" height="48" fill="white"/>
</clipPath>
</defs>
</svg>
